<svg id="Component_29_1" data-name="Component 29 – 1" xmlns="http://www.w3.org/2000/svg" width="156" height="156" viewBox="0 0 156 156">
  <circle id="Ellipse_423" data-name="Ellipse 423" cx="78" cy="78" r="78" fill="#ff4d00" opacity="0.33"/>
  <circle id="Ellipse_424" data-name="Ellipse 424" cx="65" cy="65" r="65" transform="translate(13 13)" fill="#ff4d00"/>
  <g id="analytics" transform="translate(44.769 556.891)">
    <path id="Path_1260" data-name="Path 1260" d="M74.571-511.713a4.9,4.9,0,0,0-2.466,1.457,5.384,5.384,0,0,0-1.137,6.018l.256.562-4.434,4.434-4.421,4.421-.754-.307a5.353,5.353,0,0,0-3.271-.243,5.009,5.009,0,0,0-2.415,1.265l-.639.575-3.207-.907c-1.776-.511-3.246-.958-3.284-.984a4.873,4.873,0,0,1-.192-.882,5.485,5.485,0,0,0-6.159-4.626,5.468,5.468,0,0,0-4.37,7.092c.089.281.128.549.077.588s-1.955,1.572-4.217,3.373l-4.114,3.3-.856-.345a5.4,5.4,0,0,0-3.335-.268,4.815,4.815,0,0,0-2.594,1.469,5.3,5.3,0,0,0-.115,7.488,5,5,0,0,0,4.255,1.7,4.77,4.77,0,0,0,3.322-1.38,5.147,5.147,0,0,0,1.687-2.964,4.941,4.941,0,0,0-.23-2.952,1.815,1.815,0,0,1-.153-.856c.064-.051,1.917-1.533,4.114-3.284l4-3.182.856.422a5.293,5.293,0,0,0,4.817.064,6.183,6.183,0,0,0,2.147-1.8l.217-.319,3.131.894,3.131.882-.077.511a6.755,6.755,0,0,0,.588,2.888,7.207,7.207,0,0,0,2.1,2.211,5.346,5.346,0,0,0,3.067.69,4.768,4.768,0,0,0,3.348-1.406,5.378,5.378,0,0,0,1.316-6.2l-.256-.6,4.4-4.4,4.383-4.383,1.022.345a4.317,4.317,0,0,0,2.1.281,4.767,4.767,0,0,0,3.4-1.406,5.344,5.344,0,0,0,.307-7.679A5.4,5.4,0,0,0,74.571-511.713Zm2.683,2.9a2.727,2.727,0,0,1,.69,4.153,2.678,2.678,0,0,1-4.689-1.751A2.663,2.663,0,0,1,77.255-508.812ZM44.684-497.849a4.132,4.132,0,0,1,.818.818,2,2,0,0,1,.345,1.482,2,2,0,0,1-.345,1.482,2.525,2.525,0,0,1-2.019,1.176,2.369,2.369,0,0,1-2.108-.716,2.452,2.452,0,0,1-.831-1.942,2.4,2.4,0,0,1,.779-1.9,2.218,2.218,0,0,1,2.044-.741A2.189,2.189,0,0,1,44.684-497.849ZM60.9-492.457a2.727,2.727,0,0,1,.69,4.153,2.678,2.678,0,0,1-4.689-1.751A2.663,2.663,0,0,1,60.9-492.457Zm-32.711,8.178a2.727,2.727,0,0,1,.69,4.153,2.678,2.678,0,0,1-4.689-1.751A2.663,2.663,0,0,1,28.188-484.279Z" transform="translate(-18.493 0)" fill="#fff"/>
    <path id="Path_1261" data-name="Path 1261" d="M52.6-340.8c-.677.486-.652-.486-.652,20.879v19.806H46.585v-11.628c0-12.522.013-12.228-.652-12.7-.268-.179-.843-.2-4.843-.2s-4.574.026-4.843.2c-.664.473-.652.179-.652,12.7v11.628H30.229v-14.375c0-15.755.038-15.052-.754-15.448a48.973,48.973,0,0,0-9.481,0c-.792.4-.754-.307-.754,15.448v14.375H13.874v-7.539c0-8.114,0-8.152-.652-8.612-.268-.179-.843-.2-4.843-.2s-4.574.026-4.843.2c-.652.46-.652.5-.652,8.612v7.539H2.054c-1,0-1.38.153-1.661.7a1.328,1.328,0,0,0,.268,1.61l.332.307H64.831l.332-.307a1.328,1.328,0,0,0,.268-1.61c-.281-.549-.664-.7-1.661-.7H62.94v-19.806c0-21.365.026-20.393-.652-20.879-.268-.179-.843-.2-4.843-.2S52.871-340.974,52.6-340.8Zm7.526,21.518v19.039H54.763v-38.078h5.367Zm-32.711,5.431v13.608H22.051v-27.217h5.367ZM43.774-311.1v10.861H38.407v-21.722h5.367Zm-32.711,4.089v6.772H5.7v-13.544h5.367Z" transform="translate(0 -149.055)" fill="#fff"/>
  </g>
</svg>
