<svg id="Component_30_1" data-name="Component 30 – 1" xmlns="http://www.w3.org/2000/svg" width="156" height="156" viewBox="0 0 156 156">
  <circle id="Ellipse_425" data-name="Ellipse 425" cx="78" cy="78" r="78" fill="#ff4d00" opacity="0.33"/>
  <circle id="Ellipse_426" data-name="Ellipse 426" cx="65" cy="65" r="65" transform="translate(13 13)" fill="#ff4d00"/>
  <g id="shopping-cart" transform="translate(46 552)">
    <path id="Path_1262" data-name="Path 1262" d="M.793-504.8A1.618,1.618,0,0,0,0-503.611a1.89,1.89,0,0,0,.7,1.255c.315.195.73.232,3.636.28,3.082.061,3.3.073,3.8.341a4.059,4.059,0,0,1,1.711,1.706c.164.317,2.416,6.764,4.995,14.332l4.705,13.747-.226.573c-.918,2.316-.881,2.194-.893,3.668a5.524,5.524,0,0,0,.289,2.218,7.025,7.025,0,0,0,4.995,4.424c1.095.268,30.584.28,31.125.012a1.431,1.431,0,0,0-.025-2.547c-.214-.11-3.686-.158-15.5-.207l-15.223-.061-.679-.366A4.4,4.4,0,0,1,21.69-466a3.362,3.362,0,0,1-.239-1.523,3.672,3.672,0,0,1,.352-1.9c.352-.792.377-.817.881-.89.289-.037,7.347-.756,15.688-1.6s15.475-1.584,15.852-1.658a9.065,9.065,0,0,0,4.2-2.047,8.568,8.568,0,0,0,2.088-3.242c.465-1.3,3.925-15.661,3.85-15.966a1.65,1.65,0,0,0-.956-.938c-.2-.073-9.335-.244-24.684-.451-13.411-.183-24.394-.353-24.432-.39s-.34-.926-.7-2c-.931-2.718-1.271-3.364-2.327-4.4a6.95,6.95,0,0,0-3.435-1.865A34.063,34.063,0,0,0,4.177-505C1.724-505,1.12-504.963.793-504.8ZM41.14-493.288c10.9.146,19.828.28,19.853.3s-.692,2.974-1.6,6.593c-1.711,6.8-1.975,7.593-2.78,8.434a5.39,5.39,0,0,1-2.4,1.4c-.7.171-30.635,3.242-31.666,3.242h-.39l-1.912-5.643c-1.057-3.1-2.6-7.678-3.46-10.189L15.236-493.7l3.045.073C19.953-493.58,30.245-493.434,41.14-493.288Z" fill="#fff"/>
    <path id="Path_1263" data-name="Path 1263" d="M115.793-113.563a7.544,7.544,0,0,0-5.565,5.428,7.185,7.185,0,0,0,1.965,6.857,7.161,7.161,0,0,0,6.885,1.993,7.2,7.2,0,0,0,3.463-2.02,7.121,7.121,0,0,0,2.075-6.074,7.378,7.378,0,0,0-4.081-5.579A6.731,6.731,0,0,0,115.793-113.563Zm3.353,3.545a3.845,3.845,0,0,1,2.212,3.655,3.122,3.122,0,0,1-.316,1.649,4.534,4.534,0,0,1-2.2,2.061,4.047,4.047,0,0,1-5.249-5.249,4.436,4.436,0,0,1,2.748-2.46A4.771,4.771,0,0,1,119.146-110.018Z" transform="translate(-96.519 -343.117)" fill="#fff"/>
    <path id="Path_1264" data-name="Path 1264" d="M341.772-113.64a7.032,7.032,0,0,0-3.642,2.034,6.671,6.671,0,0,0-2.13,5.1,6.89,6.89,0,0,0,2.157,5.208,7.2,7.2,0,0,0,10.251,0,6.8,6.8,0,0,0,2.157-5.126,6.652,6.652,0,0,0-2.13-5.181,7.039,7.039,0,0,0-3.71-2.048A5.818,5.818,0,0,0,341.772-113.64Zm3.188,3.449a4.275,4.275,0,0,1,2.006,2.075,4.025,4.025,0,0,1-1.855,5.249,4.687,4.687,0,0,1-3.655,0,4.057,4.057,0,0,1-1.388-6.074A4.115,4.115,0,0,1,344.96-110.191Z" transform="translate(-295.767 -343.039)" fill="#fff"/>
  </g>
</svg>
