<svg id="elevator" xmlns="http://www.w3.org/2000/svg" width="82.256" height="82.243" viewBox="0 0 82.256 82.243">
  <path id="Path_136" data-name="Path 136" d="M8-498.694v5.306h2.653v71.631H76.978v-23.877h4.908a37.725,37.725,0,0,0,5.6-.2,4.925,4.925,0,0,0,2.554-2.553c.282-.978.282-33.312,0-34.257a4.53,4.53,0,0,0-.912-1.459c-1.144-1.277-1.426-1.327-7.213-1.327H76.978v-7.959h2.653V-504H8Zm68.978,0v2.653H10.653v-5.306H76.978Zm-53.06,39.8v34.489H13.306v-68.978H23.918ZM53.1-486.523v6.848l-.862-.216a8,8,0,0,0-9.5,5.82,7.9,7.9,0,0,0,1.426,6.749l.481.6-.862.282a9.536,9.536,0,0,0-3.6,2.089c-.945.9-.779.879-2.3.381-.166-.05-.083-.249.265-.7a7.813,7.813,0,0,0-.6-10.347A7.886,7.886,0,0,0,27.4-476.061l-.829.564v-17.891H53.1Zm21.224-2.885v3.979H73.4a6.808,6.808,0,0,0-1.625.2,4.925,4.925,0,0,0-2.554,2.554c-.149.5-.2,2.8-.2,8.257v7.561H56.434l.564-.829a7.915,7.915,0,0,0-.6-9.7l-.647-.7v-15.3H74.325Zm12.851,7.047.415.4V-449.1l-.415.4-.4.415H72.485l-.4-.415-.415-.4v-9.8h3.233l2.321,3.9c1.277,2.139,2.355,3.88,2.4,3.88s1.476-2.321,3.184-5.173l3.084-5.173-3.2-.05-3.217-.033.1-.829a3.6,3.6,0,0,0-1.177-3.233c-1.094-1.094-1.658-1.244-4.477-1.244H71.672v-15.106l.415-.4.4-.415H86.778ZM52.952-476.79a4.735,4.735,0,0,1,2.272,2.371,3.936,3.936,0,0,1,.431,2.255,3.669,3.669,0,0,1-.547,2.454,4.894,4.894,0,0,1-2.4,2.321,3.936,3.936,0,0,1-2.255.431,3.936,3.936,0,0,1-2.255-.431,4.894,4.894,0,0,1-2.4-2.321,3.669,3.669,0,0,1-.547-2.454,4.639,4.639,0,0,1,1.476-3.731A5.241,5.241,0,0,1,52.952-476.79Zm-18.571,2.653a4.735,4.735,0,0,1,2.272,2.371,3.936,3.936,0,0,1,.431,2.255,3.669,3.669,0,0,1-.547,2.454,4.894,4.894,0,0,1-2.4,2.321,3.936,3.936,0,0,1-2.255.431,3.936,3.936,0,0,1-2.255-.431,4.894,4.894,0,0,1-2.4-2.321,3.669,3.669,0,0,1-.547-2.454,4.639,4.639,0,0,1,1.476-3.731A5.241,5.241,0,0,1,34.381-474.137ZM76.564-463.79a1.293,1.293,0,0,1,.415.912,1.293,1.293,0,0,1-.415.912l-.4.415h-8.49c-6.019,0-8.672.05-9.136.2a4.908,4.908,0,0,0-2.388,2.073c-.3.6-.315,1.426-.4,17.162l-.083,16.548-.547.531a1.465,1.465,0,0,1-1.36.547,1.465,1.465,0,0,1-1.36-.547l-.547-.531-.05-10.032-.033-10.032H49.122L49.088-435.6l-.05,10.032-.547.531a1.465,1.465,0,0,1-1.36.547,1.465,1.465,0,0,1-1.36-.547l-.547-.531-.05-16-.033-16H42.489v13.3l-.531-.1a2.688,2.688,0,0,1-1.691-1.161c-.332-.448-.348-.647-.348-7.047v-6.583l.63-1.26a6.744,6.744,0,0,1,4.377-3.6c.348-.083,7.511-.149,15.935-.166l15.3-.017ZM37.233-461.37c.332.083.614.216.614.282a5.851,5.851,0,0,1-.3.862c-.265.68-.282,2.122-.365,17.692L37.1-425.571l-.547.531a1.465,1.465,0,0,1-1.36.547,1.465,1.465,0,0,1-1.36-.547l-.547-.531-.05-10.032L33.2-445.634H30.551L30.517-435.6l-.05,10.032-.547.531a1.465,1.465,0,0,1-1.36.547,1.465,1.465,0,0,1-1.36-.547l-.547-.531-.05-17.991-.033-17.991h5.008A47.28,47.28,0,0,1,37.233-461.37Zm31.786,7.379a37.729,37.729,0,0,0,.2,5.6,4.925,4.925,0,0,0,2.554,2.553,6.806,6.806,0,0,0,1.625.2h.929v21.224H57.943l.232-.63c.182-.5.216-3.714.232-16.83v-16.217l.415-.4.4-.415h9.8Zm11.474-3.582a9.121,9.121,0,0,1-.862,1.327,9.122,9.122,0,0,1-.862-1.327L77.99-458.9h3.283ZM41.444-441.837l1.045.265v7.959c.017,6.218.066,8.092.232,8.573l.232.63H39.372l.232-.63c.166-.481.216-2.421.232-8.97,0-7.876.017-8.34.3-8.208C40.284-442.152,40.881-441.986,41.444-441.837Z" transform="translate(-8 504)" fill="#ff4d00"/>
  <path id="Path_137" data-name="Path 137" d="M56-422.673v1.326h2.653V-424H56Z" transform="translate(-48.041 437.265)" fill="#ff4d00"/>
  <path id="Path_138" data-name="Path 138" d="M56-390.673v1.327h2.653V-392H56Z" transform="translate(-48.041 410.571)" fill="#ff4d00"/>
  <path id="Path_139" data-name="Path 139" d="M56-358.673v1.327h2.653V-360H56Z" transform="translate(-48.041 383.877)" fill="#ff4d00"/>
  <path id="Path_140" data-name="Path 140" d="M312-422.673v1.326h2.653V-424H312Z" transform="translate(-261.593 437.265)" fill="#ff4d00"/>
  <path id="Path_141" data-name="Path 141" d="M344-422.673v1.326h2.653V-424H344Z" transform="translate(-288.287 437.265)" fill="#ff4d00"/>
  <path id="Path_142" data-name="Path 142" d="M376-422.673v1.326h2.653V-424H376Z" transform="translate(-314.98 437.265)" fill="#ff4d00"/>
  <path id="Path_143" data-name="Path 143" d="M405.284-353.727l-3.084,5.173,3.134.05c1.724.017,4.543.017,6.268,0l3.134-.05-3.084-5.173c-1.708-2.852-3.134-5.173-3.184-5.173S406.992-356.579,405.284-353.727Zm4.046,1.277.779,1.327h-3.283l.779-1.327a9.119,9.119,0,0,1,.862-1.327A9.116,9.116,0,0,1,409.33-352.45Z" transform="translate(-336.836 382.959)" fill="#ff4d00"/>
  <path id="Path_144" data-name="Path 144" d="M376-130.694v5.306h2.653V-136H376Z" transform="translate(-314.98 197.019)" fill="#ff4d00"/>
  <path id="Path_145" data-name="Path 145" d="M376-54.674v1.327h2.653V-56H376Z" transform="translate(-314.98 130.284)" fill="#ff4d00"/>
</svg>
