<svg id="Component_49_1" data-name="Component 49 – 1" xmlns="http://www.w3.org/2000/svg" width="43.921" height="43.92" viewBox="0 0 43.921 43.92">
  <g id="Component_20_1" data-name="Component 20 – 1">
    <path id="Path_694" data-name="Path 694" d="M210.45,272.053H189.683a11.737,11.737,0,0,0-11.577,11.823v20.274a11.737,11.737,0,0,0,11.577,11.823H210.45a11.737,11.737,0,0,0,11.577-11.823V283.876A11.737,11.737,0,0,0,210.45,272.053Z" transform="translate(-178.106 -272.053)" fill="#4469b0"/>
  </g>
  <path id="Path_695" data-name="Path 695" d="M219.726,295.7h3.489v-5.233H219.2c-5.689,0-5.554,4.586-5.554,5.27v3.453H211v5.234h2.641v12.211h5.21V304.427h3.489l.872-5.234h-4.362v-2.617A.79.79,0,0,1,219.726,295.7Z" transform="translate(-194.11 -281.595)" fill="#fff"/>
</svg>
