<svg id="goal" xmlns="http://www.w3.org/2000/svg" width="101.465" height="101.439" viewBox="0 0 101.465 101.439">
  <path id="Path_115" data-name="Path 115" d="M50.016-511.621a1.556,1.556,0,0,0-.654.932c-.119.456-.2,6.621-.2,16.612v15.9l-.634.337a32.532,32.532,0,0,0-2.8,2.062l-2.181,1.744-2.042-2.518c-2.22-2.736-2.934-3.251-4.777-3.509-1.388-.178-1.883-.714-2-2.141-.079-1.031-.059-1.11.615-1.7a8.615,8.615,0,0,0,2.22-3.529c.278-.852.317-1.626.258-4.163-.059-2.914-.1-3.172-.595-4.123a7.188,7.188,0,0,0-2.676-2.716,11.556,11.556,0,0,0-5.253-.694c-2.6.1-3.885.555-5.194,1.863-1.328,1.328-1.764,2.557-1.863,5.313-.139,3.806.377,5.57,2.161,7.553.932,1.011.971,1.09.971,2.22v1.15L23.334-480c-2.379,1.17-3.172,1.784-3.766,2.914-.436.793-.436.991-.5,9.277-.04,5.412.02,8.881.139,9.614A22.319,22.319,0,0,0,20.6-454.57a32.556,32.556,0,0,1,1.407,3.271c.139.555.2,4.222.159,11.894L22.1-428.3l-10.9,7.731C-.414-412.327-.414-412.327.22-411.2A1.391,1.391,0,0,0,2.2-410.6c.317-.2,11.339-7.969,24.482-17.306,13.143-9.317,23.966-16.949,24.065-16.949s11.041,7.711,24.323,17.147,24.363,17.206,24.62,17.286a1.493,1.493,0,0,0,1.665-1.982c-.139-.3-9.575-7.117-24.62-17.781l-24.4-17.306v-21.568l1.17-1.09a6.249,6.249,0,0,0,1.507-1.923,4.655,4.655,0,0,0-2-5.788l-.674-.317v-27.534H72.158l-1.09,2.18a12.477,12.477,0,0,0-1.09,2.676,12.476,12.476,0,0,0,1.09,2.676L72.158-496H64.447c-7.493,0-7.711.02-8.227.416a1.436,1.436,0,0,0-.079,2.161c.416.4.654.4,9.694.4,8.7,0,9.277-.02,9.713-.357.753-.615.575-1.407-.991-4.579l-1.447-2.914,1.368-2.755c1.784-3.568,1.824-3.727,1.07-4.46l-.575-.595H52.335v-.654C52.335-511.3,51.344-512.275,50.016-511.621ZM33.107-495.762c1.507.793,1.685,1.17,1.744,4.262.079,3.112-.119,3.905-1.289,5.114a4.671,4.671,0,0,1-5.63.932c-2.022-1.011-2.755-2.6-2.755-5.947,0-2.081.218-2.894.932-3.667.872-.932,1.526-1.11,3.925-1.13C31.937-496.2,32.353-496.139,33.107-495.762Zm-1.289,14.372c.059.317.2.813.3,1.13.159.515.1.654-.892,1.685l-1.07,1.11-1.09-1.07c-.952-.932-1.051-1.13-.892-1.546a4.03,4.03,0,0,0,.178-1.169v-.674h1.685C31.7-481.926,31.719-481.926,31.818-481.391Zm-4.857,4.936c2.458,2.5,3.747,2.518,6.264.04.674-.654,1.328-1.13,1.447-1.07a6.033,6.033,0,0,0,1.328.317,3.827,3.827,0,0,1,1.526.535c.218.2,1.368,1.586,2.557,3.092,2.2,2.755,2.577,3.112,3.31,3.112a20.851,20.851,0,0,0,3.509-2.478c2.755-2.2,3.192-2.478,3.866-2.478a1.453,1.453,0,0,1,1.566,1.586c0,.872-.139,1.011-4.321,4.341-3.192,2.557-3.945,2.993-5.095,2.993-1.031,0-1.685-.416-2.973-1.883a5.884,5.884,0,0,0-1.625-1.407,1.576,1.576,0,0,0-1.586.694c-.079.178-.2,7.136-.258,15.462l-.1,15.165-1.467,1.051a11.122,11.122,0,0,1-1.645,1.051c-.079,0-.159-3.211-.159-7.136,0-6.879-.02-7.156-.4-7.533a1.575,1.575,0,0,0-2.1.02c-.357.4-.377.872-.436,8.7l-.059,8.306-2.418,1.7-2.418,1.7-.1-10.665C25.118-447.1,25-452.072,24.9-452.29c-.079-.218-.694-1.507-1.328-2.874a23.04,23.04,0,0,1-1.368-3.548c-.3-1.625-.258-16.433.059-17.068a8.93,8.93,0,0,1,3.211-1.982A7.437,7.437,0,0,1,26.962-476.455Zm22.2,19.466v9.5l-4.8,3.39-4.817,3.41-.059-11.834c-.02-6.5,0-11.854.04-11.894.04-.06.476.119.952.357a6,6,0,0,0,2.24.535c1.8.1,3.092-.377,4.936-1.844.753-.595,1.388-1.09,1.427-1.09S49.163-462.2,49.163-456.988Z" transform="translate(-0.003 511.824)" fill="#ff4d00"/>
  <path id="Path_116" data-name="Path 116" d="M249.445-150.562a1.614,1.614,0,0,0-.04,2.042,19.578,19.578,0,0,0,4.123,2.716A1.577,1.577,0,0,0,255-147.272c0-.753-.416-1.17-2.557-2.676C250.833-151.058,250.1-151.217,249.445-150.562Z" transform="translate(-199.69 222.486)" fill="#ff4d00"/>
  <path id="Path_117" data-name="Path 117" d="M289.493-122.516a1.5,1.5,0,0,0-.258,1.982c.357.456,14.59,10.506,15.224,10.764a.953.953,0,0,0,1.11-.2,1.431,1.431,0,0,0,.119-2.3c-.595-.535-13.936-10.05-14.669-10.427A1.123,1.123,0,0,0,289.493-122.516Z" transform="translate(-231.689 200.009)" fill="#ff4d00"/>
</svg>
