<svg id="integration" xmlns="http://www.w3.org/2000/svg" width="97.829" height="108.333" viewBox="0 0 97.829 108.333">
  <path id="Path_119" data-name="Path 119" d="M231.3-511.4a6.149,6.149,0,0,0-4.3,6.082,4.644,4.644,0,0,0,.7,2.67,6.284,6.284,0,0,0,3.369,3.073l.593.127v8.646h3.6v-8.646l.784-.276a7.213,7.213,0,0,0,3.136-3.051,7.483,7.483,0,0,0,.233-4.726,7.026,7.026,0,0,0-3.136-3.56A6.77,6.77,0,0,0,231.3-511.4Zm3.708,3.645a3.127,3.127,0,0,1,1.314,2.373,3.161,3.161,0,0,1-1.5,2.331,2.751,2.751,0,0,1-1.759.318,2.11,2.11,0,0,1-1.738-.848,2.52,2.52,0,0,1-.593-3.009A3.044,3.044,0,0,1,235.01-507.757Z" transform="translate(-184.197 511.725)" fill="#ff4d00"/>
  <path id="Path_120" data-name="Path 120" d="M31.586-399.648a6.765,6.765,0,0,0-4.45,3.285,4.5,4.5,0,0,0-.636,2.946,4.853,4.853,0,0,0,.487,2.691,6.422,6.422,0,0,0,9.26,2.585l1-.636,3.814,2.458c2.1,1.335,3.878,2.437,3.963,2.437a7.789,7.789,0,0,0,1.017-1.42l.89-1.42-2.31-1.5c-1.293-.805-3.03-1.928-3.9-2.479l-1.568-1v-1.568a6.136,6.136,0,0,0-3.5-5.764A8.357,8.357,0,0,0,31.586-399.648Zm2.67,3.793a2.774,2.774,0,0,1-1.462,5.192,3.78,3.78,0,0,1-1.547-.36,3.239,3.239,0,0,1-1.356-2.818,3.694,3.694,0,0,1,1.674-2.119A3.916,3.916,0,0,1,34.256-395.854Z" transform="translate(-26.184 423.45)" fill="#ff4d00"/>
  <path id="Path_121" data-name="Path 121" d="M403.291-397.609a7.113,7.113,0,0,0-4.323,3.878,5.471,5.471,0,0,0-.3,2.5l.064,1.526-3.857,2.458c-2.14,1.377-3.878,2.543-3.878,2.628a12.972,12.972,0,0,0,.869,1.526c.826,1.293.911,1.356,1.335,1.081.254-.148,2.013-1.271,3.92-2.5l3.475-2.225.763.487a6.92,6.92,0,0,0,4.6.975,6.5,6.5,0,0,0,4.81-3.5,7.343,7.343,0,0,0-.064-5.488,6.811,6.811,0,0,0-3.157-2.967A8.311,8.311,0,0,0,403.291-397.609Zm3.242,3.772a3.163,3.163,0,0,1,1.314,2.818,3.255,3.255,0,0,1-1.589,2.013c-2.373,1.229-5.128-1.356-3.942-3.687a2.568,2.568,0,0,1,1.759-1.4A2.789,2.789,0,0,1,406.533-393.837Z" transform="translate(-313.443 421.899)" fill="#ff4d00"/>
  <path id="Path_122" data-name="Path 122" d="M153.457-375.793a4.272,4.272,0,0,0-2.225,2.395,17.788,17.788,0,0,0-.148,2.606v1.907l-1.42-1.377c-1.653-1.589-2.5-2.077-3.56-2.077-1.293,0-2.2.678-5.743,4.281-3.645,3.687-4.069,4.344-3.793,5.849.106.572.551,1.187,1.844,2.5l1.674,1.738-2.289.064c-2.8.106-3.518.445-4.281,1.95-.487,1-.487,1.017-.339,6.082.148,4.726.191,5.149.615,5.785.763,1.144,1.61,1.42,4.238,1.42h2.31l-1.5,1.568c-1.611,1.653-1.95,2.246-1.95,3.433,0,1.335.3,1.674,6.251,7.332,2.818,2.67,4.047,2.691,6.654.085a13.844,13.844,0,0,1,1.78-1.611,8.008,8.008,0,0,1,.148,2.183c0,2.479.3,3.306,1.5,4.132.7.487.763.487,6.251.424,5.234-.064,5.594-.085,6.145-.509,1.293-.954,1.462-1.4,1.526-4.026l.085-2.416,1.759,1.568c1.907,1.7,2.606,1.992,4.09,1.716.657-.106,1.377-.72,4.535-3.878s3.772-3.9,3.984-4.662c.4-1.526,0-2.416-1.822-4.153-1.865-1.759-1.844-1.759,1.187-1.8,2.246-.021,3.073-.4,3.772-1.738.509-.911.509-1,.4-5.976-.127-5.594-.212-5.933-1.632-6.866-.615-.445-.954-.487-3.157-.487h-2.437l1.377-1.441a19.221,19.221,0,0,0,1.759-1.95,3.8,3.8,0,0,0,.042-3.009,76.3,76.3,0,0,0-6.633-6.59c-2.183-1.928-3.539-1.78-6.018.614l-1.611,1.589-.148-1c-.064-.551-.127-1.568-.127-2.289a3.232,3.232,0,0,0-1.526-3.094c-.657-.4-1.059-.424-5.891-.4C156.276-375.9,153.733-375.836,153.457-375.793Zm9.705,5.679c0,3.157.127,3.433,2.077,4.2,2.289.89,2.416.848,4.493-1.229a9.615,9.615,0,0,1,2.055-1.759c.127.042,1.547,1.293,3.136,2.8l2.9,2.734-1.716,1.716c-2.246,2.267-2.31,2.5-1.483,4.429.954,2.246,1,2.267,4.238,2.267H181.6v8.264h-2.628c-3.094,0-3.263.085-4.09,2.013-.975,2.31-1,2.183,1.293,4.514l2.034,2.077-2.946,2.924-2.946,2.945-1.992-1.822c-2.289-2.14-2.522-2.2-4.683-1.208-1.95.89-2.056,1.081-2.056,4.047v2.479L161-328.58c-1.441.064-3.327.106-4.2.064l-1.589-.064-.106-2.691c-.127-3.094-.106-3.051-2.056-3.857-2.183-.911-2.437-.848-4.6,1.335l-1.886,1.907-3.03-2.9-3.051-2.882,1.8-1.822a10.552,10.552,0,0,0,1.907-2.373,2.918,2.918,0,0,0-.4-1.738,9.349,9.349,0,0,1-.551-1.377,2.415,2.415,0,0,0-.551-.678c-.53-.487-.636-.509-3.285-.445l-2.734.064v-8.222l2.712-.148c3.136-.169,3.073-.127,4.047-2.395.848-1.95.742-2.2-1.526-4.344l-1.738-1.632,2.967-2.967,2.967-2.988,1.971,1.8c1.5,1.4,2.1,1.8,2.564,1.8a10.06,10.06,0,0,0,3.793-1.632,8.455,8.455,0,0,0,.254-2.945v-2.606l1.441-.085c.784-.042,2.691-.085,4.238-.106l2.8-.042Z" transform="translate(-110.187 404.703)" fill="#ff4d00"/>
  <path id="Path_123" data-name="Path 123" d="M213.511-305.519a10.586,10.586,0,0,0-7.586,8.794,9.694,9.694,0,0,0,1,6.061,10.378,10.378,0,0,0,9.727,5.849,10.461,10.461,0,0,0,10.214-7.523,12.013,12.013,0,0,0-.212-6.76,11.405,11.405,0,0,0-6.124-6.124A15.355,15.355,0,0,0,213.511-305.519Zm6.23,3.814a7.475,7.475,0,0,1,3.454,3.454,7.229,7.229,0,0,1,0,5.785,7.4,7.4,0,0,1-3.539,3.56,5.827,5.827,0,0,1-3.094.551,5.7,5.7,0,0,1-3.073-.551,6.7,6.7,0,0,1-3.412-3.2,5.085,5.085,0,0,1-.72-3.136,5.309,5.309,0,0,1,.7-3.221,6.983,6.983,0,0,1,4.641-3.772A8.926,8.926,0,0,1,219.742-301.7Z" transform="translate(-167.508 349.432)" fill="#ff4d00"/>
  <path id="Path_124" data-name="Path 124" d="M39.651-187.064l-3.9,2.5-.763-.509a8.829,8.829,0,0,0-2.161-.848,4.856,4.856,0,0,0-2.564-.106,7.006,7.006,0,0,0-4.132,2.628,6.255,6.255,0,0,0,2.67,9.324,5.488,5.488,0,0,0,2.67.466,5.652,5.652,0,0,0,4.683-2.056,5.275,5.275,0,0,0,1.526-4.387l-.064-1.526,3.878-2.479a43,43,0,0,0,3.857-2.628,26.864,26.864,0,0,0-1.759-2.818C43.571-189.522,41.791-188.42,39.651-187.064Zm-6.823,4.832a2.726,2.726,0,0,1,1.081,3.793,3.143,3.143,0,0,1-4.047,1A3.174,3.174,0,0,1,28.5-180.3a3.8,3.8,0,0,1,1.674-2.1A3.4,3.4,0,0,1,32.827-182.233Z" transform="translate(-25.01 257.783)" fill="#ff4d00"/>
  <path id="Path_125" data-name="Path 125" d="M390.069-185.58l-.869,1.42,1.716,1.1c.954.615,2.712,1.716,3.878,2.479l2.161,1.377v1.589a5.776,5.776,0,0,0,1.632,4.344A6.48,6.48,0,0,0,408.95-174.5a4.463,4.463,0,0,0,.657-2.967,4.853,4.853,0,0,0-.487-2.691,6.488,6.488,0,0,0-9.451-2.5l-.784.53-3.793-2.437c-2.1-1.335-3.878-2.437-3.984-2.437A6.485,6.485,0,0,0,390.069-185.58Zm14.791,5.722a3.733,3.733,0,0,1,1.081,1.293,1.892,1.892,0,0,1,.212,1.716,2.83,2.83,0,0,1-2.628,2.1,2.323,2.323,0,0,1-1.865-.424,2.762,2.762,0,0,1,1.632-5.043A3.8,3.8,0,0,1,404.86-179.859Z" transform="translate(-312.025 255.812)" fill="#ff4d00"/>
  <path id="Path_126" data-name="Path 126" d="M229.544-94.7v4.3l-.784.275a7.836,7.836,0,0,0-3.136,3.094,7.4,7.4,0,0,0-.212,4.747,6.743,6.743,0,0,0,3.327,3.645,6.081,6.081,0,0,0,2.712.509,6.158,6.158,0,0,0,4.853-2.14,6.3,6.3,0,0,0-2.013-9.727l-1.144-.551V-99h-3.6Zm3.941,8.476a2.52,2.52,0,0,1,.593,3.009,2.761,2.761,0,0,1-2.628,1.589,2.839,2.839,0,0,1-2.67-1.589,2.4,2.4,0,0,1,.085-2.416,2.805,2.805,0,0,1,2.882-1.441A2.11,2.11,0,0,1,233.486-86.222Z" transform="translate(-182.714 186.46)" fill="#ff4d00"/>
</svg>
