<svg id="invention" xmlns="http://www.w3.org/2000/svg" width="92.259" height="92.292" viewBox="0 0 92.259 92.292">
  <path id="Path_127" data-name="Path 127" d="M248.775-511.592c-.6.289-.775,1.172-.775,3.841,0,2.867.162,3.57.9,3.877a1.264,1.264,0,0,0,1.8-.884,25.571,25.571,0,0,0,0-5.987A1.283,1.283,0,0,0,248.775-511.592Z" transform="translate(-203.298 511.766)" fill="#ff4d00"/>
  <path id="Path_128" data-name="Path 128" d="M105.26-451.6c-.739.811-.523,1.262,1.677,3.516a16.824,16.824,0,0,0,2.543,2.308,1.422,1.422,0,0,0,1.731-.451c.469-.866.252-1.244-2.038-3.534-2.02-2.056-2.254-2.236-2.867-2.236A1.347,1.347,0,0,0,105.26-451.6Z" transform="translate(-85.984 462.777)" fill="#ff4d00"/>
  <path id="Path_129" data-name="Path 129" d="M373.117-449.764c-2.29,2.29-2.506,2.669-2.038,3.534a1.422,1.422,0,0,0,1.731.451,17.548,17.548,0,0,0,2.561-2.308c1.623-1.677,2.02-2.182,2.02-2.6A1.324,1.324,0,0,0,375.984-452C375.371-452,375.136-451.82,373.117-449.764Z" transform="translate(-304.018 462.777)" fill="#ff4d00"/>
  <path id="Path_130" data-name="Path 130" d="M42.367-440.442a24.278,24.278,0,0,0-12.677,6.311,23.789,23.789,0,0,0-7.61,17.744,23.549,23.549,0,0,0,2,9.845c.289.631.523,1.19.523,1.208a15.053,15.053,0,0,1-1.984,0,11.7,11.7,0,0,0-6.383,1.37A14.238,14.238,0,0,0,9.8-396.7c-.361,1.01-.4,1.028-1.6,1.5a12.789,12.789,0,0,0-7.826,9.341,11.865,11.865,0,0,0,1.064,7.988,12.392,12.392,0,0,0,11.126,7.159c1.857.054,2.308-.2,2.308-1.3,0-1.046-.415-1.28-2.47-1.443a9.257,9.257,0,0,1-4.652-1.352,9.94,9.94,0,0,1-4.869-7.844,10.131,10.131,0,0,1,7.375-10.4c1.172-.343,1.515-.649,1.749-1.569a11.71,11.71,0,0,1,3.444-5.608,11.359,11.359,0,0,1,4.49-2.254,13.8,13.8,0,0,1,5.752.343c1.334.451,1.407.523,4.688,4.977a31.783,31.783,0,0,1,3.1,5.049,54.082,54.082,0,0,1,3.029,7.375c0,.144-.252.27-.613.325-.6.072-.613.054-.523-.415.216-1.082-1.208-1.785-3.733-1.839-1.407-.036-1.425-.036-1.515-.559a8.023,8.023,0,0,1,1.01-5.3c.667-1.19.577-1.893-.307-2.326-.956-.451-1.479-.072-2.362,1.7a9.742,9.742,0,0,0-1.1,5.554l.108,1.659-.9.415c-1.208.577-2.326,1.623-2.326,2.182a1.381,1.381,0,0,0,1.1,1.334c.451.108.721,0,1.515-.523a7.391,7.391,0,0,1,5.7-1.334c.739.108,1.5.2,1.7.2.361-.018.361.072.289,2.579-.072,3.011.2,5.752.7,6.852l.343.775-8.277.054c-7.826.054-8.277.072-8.637.4a1.5,1.5,0,0,0,0,2.02c.361.325.811.343,8.457.4l8.06.054.2,1.172c.559,3.354,2.9,5.77,6.888,7.1,3.065,1.046,3.751,1.082,17.545,1.082,14.137,0,13.65.054,13.65-1.352S73.942-363.9,60-363.9c-12.947,0-14.047-.054-16.644-.829-2.506-.739-4.6-2.47-5.139-4.256a6.87,6.87,0,0,1,3.841-8.042,6.922,6.922,0,0,1,2.687-.577c2.164-.126,2.29-.234,2.543-2.524a7.864,7.864,0,0,1,3.57-5.969,8.285,8.285,0,0,1,7.159-.415c1.677.685,1.984.559,2.921-1.19a10.3,10.3,0,0,1,4.508-4.346l1.533-.757,2.146,2.092c1.893,1.857,2.218,2.11,2.777,2.11a1.293,1.293,0,0,0,1.19-1.839,11.934,11.934,0,0,0-1.388-1.641c-1.352-1.37-1.316-1.406.829-.956a10.884,10.884,0,0,1,7.88,7.592,6.507,6.507,0,0,0,.487,1.316,3.85,3.85,0,0,0,1.208.5,10.006,10.006,0,0,1,7.321,11.631c-.992,4.941-5.085,8.1-10.459,8.1-1.208,0-1.425.054-1.8.451a1.182,1.182,0,0,0,.018,1.839c.469.469.487.469,2.669.379a12.075,12.075,0,0,0,8.764-3.751,11.953,11.953,0,0,0,3.156-5.121,12.638,12.638,0,0,0-6.4-15.093c-.848-.415-1.731-.829-1.965-.956-.289-.126-.559-.559-.829-1.316a14.045,14.045,0,0,0-7.465-7.591,13.6,13.6,0,0,0-10.837.5,14.168,14.168,0,0,0-5.319,4.869c-.2.379-.361.487-.631.415a1.026,1.026,0,0,1-.451-.234,14.7,14.7,0,0,1,1.172-2.669,30.152,30.152,0,0,1,3.642-5.716c3.679-4.887,4.4-5.951,5.356-7.934a22.993,22.993,0,0,0,2.362-10.549,23.614,23.614,0,0,0-.992-7.123,24.707,24.707,0,0,0-5.283-9.323c-.992-1.046-1.262-1.226-1.767-1.226a1.362,1.362,0,0,0-.974.4c-.631.667-.469,1.226.739,2.6a23.087,23.087,0,0,1,4.995,9.268c.415,1.551.469,2.038.469,5.229a24,24,0,0,1-.216,4.508,23.774,23.774,0,0,1-3.949,8.655c-4.67,6.131-5.446,7.249-6.816,10.062-.757,1.551-1.443,2.957-1.515,3.1-.09.162-.559.325-1.226.4a10.144,10.144,0,0,0-7.3,4.147l-.92,1.226-3.083-.036-3.065-.054-.938-2.524a42.1,42.1,0,0,0-6.654-12.514c-3.769-5.031-4.057-5.446-4.869-7.051a20.274,20.274,0,0,1-2.254-9.737,19.945,19.945,0,0,1,1.839-8.908,21.976,21.976,0,0,1,7.754-9.16,20.4,20.4,0,0,1,11.054-3.516,20.377,20.377,0,0,1,10.495,2.218,10.381,10.381,0,0,0,2.038.793c.433,0,1.262-.757,1.262-1.154,0-.811-.379-1.19-1.929-1.965a24.713,24.713,0,0,0-5.824-2.128A32.811,32.811,0,0,0,42.367-440.442Zm2.272,59.362-.108.667-1.28.216a9.065,9.065,0,0,0-5.157,2.7l-.685.667v-4.923h7.339Z" transform="translate(-0.1 453.473)" fill="#ff4d00"/>
  <path id="Path_131" data-name="Path 131" d="M205.25-343.627A6.282,6.282,0,0,0,201.211-340l-.415.974h-5.969c-7.249,0-6.636-.252-6.726,2.813-.054,1.7-.018,2.146.234,2.524a1.3,1.3,0,0,0,1.587.577c.685-.253.848-.649.848-2.02v-1.19h2.669l.072,1.262c.072,1.479.469,2.038,1.425,2.038.9,0,1.244-.559,1.244-2.056v-1.244h2.344c2.092,0,2.362.036,2.452.307a6.229,6.229,0,0,0,3.282,3.877,4.513,4.513,0,0,0,2.651.6,5.21,5.21,0,0,0,2.561-.523,6.714,6.714,0,0,0,3.12-3.083,7.163,7.163,0,0,0,.072-4.977A6.347,6.347,0,0,0,205.25-343.627Zm2.975,2.7a3.518,3.518,0,0,1,.974,5.9,3.487,3.487,0,0,1-5.716-2.236C203.014-339.732,205.845-341.914,208.225-340.922Z" transform="translate(-154.183 374.149)" fill="#ff4d00"/>
  <path id="Path_132" data-name="Path 132" d="M46.631-308.784A1.04,1.04,0,0,0,46-307.648c0,1.19.451,1.352,3.967,1.352s3.967-.162,3.967-1.352c0-1.208-.451-1.352-4-1.352A13.777,13.777,0,0,0,46.631-308.784Z" transform="translate(-37.723 345.563)" fill="#ff4d00"/>
  <path id="Path_133" data-name="Path 133" d="M422.631-308.784a1.04,1.04,0,0,0-.631,1.136c0,1.19.451,1.352,3.967,1.352s3.967-.162,3.967-1.352c0-1.208-.451-1.352-4-1.352A13.777,13.777,0,0,0,422.631-308.784Z" transform="translate(-345.923 345.563)" fill="#ff4d00"/>
  <path id="Path_134" data-name="Path 134" d="M109.58-186.033a16.828,16.828,0,0,0-2.543,2.308c-1.641,1.677-2.038,2.182-2.038,2.6a1.324,1.324,0,0,0,1.407,1.316c.613,0,.848-.18,2.867-2.236,2.29-2.29,2.506-2.669,2.038-3.534A1.422,1.422,0,0,0,109.58-186.033Z" transform="translate(-86.085 244.866)" fill="#ff4d00"/>
  <path id="Path_135" data-name="Path 135" d="M320.42-134.606a1.366,1.366,0,0,0-.451.721,9.12,9.12,0,0,0,.721,1.767,7.874,7.874,0,0,1,.829,4.67l-.108.631-1.677.108c-2.038.108-3.083.487-3.372,1.226a1.077,1.077,0,0,0-.036.992c.325.685.956.884,2.038.649a8.142,8.142,0,0,1,6.347,1.208c.992.667,1.713.721,2.254.144.848-.9.252-1.911-1.767-2.993l-1.064-.577.108-1.839a9.5,9.5,0,0,0-.974-5.139C322.332-135.039,321.358-135.562,320.42-134.606Z" transform="translate(-259.219 202.995)" fill="#ff4d00"/>
</svg>
