<svg id="Component_51_1" data-name="Component 51 – 1" xmlns="http://www.w3.org/2000/svg" width="43.92" height="43.921" viewBox="0 0 43.92 43.921">
  <g id="Component_22_1" data-name="Component 22 – 1">
    <path id="Path_696" data-name="Path 696" d="M441.49,605.882H420.724a11.736,11.736,0,0,0-11.577,11.823v20.274A11.736,11.736,0,0,0,420.724,649.8H441.49a11.737,11.737,0,0,0,11.577-11.823V617.705A11.737,11.737,0,0,0,441.49,605.882Z" transform="translate(-409.147 -605.882)" fill="#e84e8b"/>
  </g>
  <path id="Dribbble" d="M452.621,631.5a13.68,13.68,0,0,0-2.917-4.328,13.624,13.624,0,0,0-20.928,2.015,13.57,13.57,0,0,0-2.052,4.874,13.785,13.785,0,0,0,0,5.486,13.639,13.639,0,0,0,2.052,4.874,13.636,13.636,0,0,0,3.676,3.676,13.675,13.675,0,0,0,2.315,1.256,13.6,13.6,0,0,0,12.92-1.256,13.607,13.607,0,0,0,3.678-3.676,13.637,13.637,0,0,0,2.052-4.874,13.621,13.621,0,0,0-.8-8.047Zm-12.55-6.33a11.588,11.588,0,0,1,7.683,2.9c-.029.043-1.685,2.566-6.078,4.211a59.1,59.1,0,0,0-4.348-6.787A11.639,11.639,0,0,1,440.071,625.173Zm-2.788.338,0,0-.035.006A.256.256,0,0,0,437.283,625.51Zm-2.177.776a69.68,69.68,0,0,1,4.321,6.7,43.036,43.036,0,0,1-10.741,1.421A11.637,11.637,0,0,1,435.106,626.286Zm-3.689,18.294a11.59,11.59,0,0,1-2.981-7.775c0-.123.006-.245.01-.367a42.648,42.648,0,0,0,11.944-1.658c.333.652.652,1.317.944,1.978-.154.042-.306.088-.458.139a18.4,18.4,0,0,0-9.463,7.675Zm8.654,3.86a11.585,11.585,0,0,1-7.263-2.548l-.149-.119.149.119.112.085s2.23-4.863,9.129-7.267c.025-.01.053-.016.078-.024a48.406,48.406,0,0,1,2.484,8.832A11.593,11.593,0,0,1,440.071,648.44Zm6.5-1.986a50.328,50.328,0,0,0-2.265-8.308,16.881,16.881,0,0,1,7.25.508A11.637,11.637,0,0,1,446.572,646.453ZM443.6,636.308c-.083-.2-.165-.4-.251-.6-.241-.571-.5-1.134-.774-1.688a14.974,14.974,0,0,0,6.482-4.6,11.59,11.59,0,0,1,2.646,7.272A26.894,26.894,0,0,0,443.6,636.308Z" transform="translate(-418.674 -614.845)" fill="#fff"/>
</svg>
