<svg id="Component_26_1" data-name="Component 26 – 1" xmlns="http://www.w3.org/2000/svg" xmlns:xlink="http://www.w3.org/1999/xlink" width="255.738" height="79.524" viewBox="0 0 255.738 79.524">
  <defs>
    <linearGradient id="linear-gradient" y1="0.5" x2="1" y2="0.5" gradientUnits="objectBoundingBox">
      <stop offset="0" stop-color="#d04700"/>
      <stop offset="1" stop-color="#ff4d00"/>
    </linearGradient>
  </defs>
  <g id="Group_199" data-name="Group 199">
    <path id="Path_1300" data-name="Path 1300" d="M414.292,312.47s1.054-3.243,3.7,2.361l19.36,42.652s8.579,2.329,7.487-5.131l-21.285-46.688S420.808,300.277,414.292,312.47Z" transform="translate(-390.407 -302.893)" fill="#6721aa"/>
    <path id="Path_1301" data-name="Path 1301" d="M365.809,400.679l-.147-.084-1.83-.981.688-1.387h0l5.9-12.518s2.251-6.644,12.084.4c-.289-.151-3.641-1.688-6.46,5.474l-5.32,11.95-3.2-1.869Z" transform="translate(-359.688 -350.616)" fill="#ff4d00"/>
    <path id="Path_1302" data-name="Path 1302" d="M400.827,390.627l24.039,18.3s8.689,3,7.647-4.448c0,0,4.154,7.732-1.378,12.124a6.979,6.979,0,0,1-9.344,0l-14.471-10.426-13.165-9.486S396.863,388.9,400.827,390.627Z" transform="translate(-378.148 -355.186)" fill="url(#linear-gradient)"/>
    <g id="Group_198" data-name="Group 198" transform="translate(15.827)">
      <path id="Path_1303" data-name="Path 1303" d="M394.081,327.606,404.5,305.852l8,3.831-5.157,10.768-5.057,10.558a4.388,4.388,0,0,1-5.852,2.065l-.515-.247A3.914,3.914,0,0,1,394.081,327.606Z" transform="translate(-393.696 -303.729)" fill="#8f26d3"/>
      <path id="Path_1304" data-name="Path 1304" d="M423.807,316.838s3.2-9.369,7.162-5.6l-3.7-8.341s-1.214-3.064-4.244-2.363a3.828,3.828,0,0,0-2.185,1.977c-.75,1.567-.024.05-.024.05" transform="translate(-410.011 -300.425)" fill="#8f26d3"/>
    </g>
    <path id="Path_1305" data-name="Path 1305" d="M361.319,433.226l-1.792,3.792-3.088-1.774,1.8-3.792Z" transform="translate(-355.188 -380.191)" fill="#ff4d00"/>
    <path id="Path_1306" data-name="Path 1306" d="M367.613,448.951l-1.515,3.206-2.611-1.5,1.521-3.206Z" transform="translate(-359.478 -389.93)" fill="#ff4d00"/>
    <path id="Path_1307" data-name="Path 1307" d="M356.575,448.979l-1.224,2.591-2.11-1.212,1.23-2.591Z" transform="translate(-353.24 -390.123)" fill="#ff4d00"/>
    <path id="Path_1308" data-name="Path 1308" d="M364.96,461.82l-.828,1.753-1.427-.82.832-1.752Z" transform="translate(-359.002 -398.179)" fill="#ff4d00"/>
  </g>
  <g id="Group_200" data-name="Group 200" transform="translate(62.67 10.266)">
    <path id="Path_1309" data-name="Path 1309" d="M524.53,328.032h1.124a2.709,2.709,0,0,1,2.542,1.773l8.391,22.8a2.708,2.708,0,0,1-2.542,3.644h-.087a2.7,2.7,0,0,1-2.577-1.874q-.558-1.726-1.252-4.009H520.011q-.465,1.492-1.3,4.021a2.71,2.71,0,0,1-2.573,1.862h0A2.708,2.708,0,0,1,513.6,352.6l8.391-22.8A2.709,2.709,0,0,1,524.53,328.032Zm.607,7.622q-1.249,3.522-3.432,9.895h6.775Q526.384,339.4,525.137,335.654Z" transform="translate(-513.429 -327.497)" fill="#838384"/>
    <path id="Path_1310" data-name="Path 1310" d="M601.74,330.907v22.464a2.874,2.874,0,0,1-2.875,2.874h0a2.874,2.874,0,0,1-2.874-2.874V330.907a2.875,2.875,0,0,1,2.874-2.875h0A2.875,2.875,0,0,1,601.74,330.907Z" transform="translate(-563.69 -327.497)" fill="#838384"/>
    <path id="Path_1311" data-name="Path 1311" d="M644.918,337.347v16.023a2.874,2.874,0,0,1-2.875,2.874h0a2.874,2.874,0,0,1-2.874-2.874V330.907a2.874,2.874,0,0,1,2.874-2.875h.561a2.873,2.873,0,0,1,2.286,1.126q6.694,8.763,13.31,18.351v-16.6a2.875,2.875,0,0,1,2.875-2.875h.09a2.875,2.875,0,0,1,2.874,2.875v22.464a2.874,2.874,0,0,1-2.874,2.874H660.4a2.869,2.869,0,0,1-2.228-1.057Q653.882,349.93,644.918,337.347Z" transform="translate(-589.976 -327.497)" fill="#838384"/>
    <path id="Path_1312" data-name="Path 1312" d="M739.455,326.665a11.417,11.417,0,0,1,10.028,5.17,17,17,0,0,1,2.764,9.806q0,6.6-3.61,10.563a11.851,11.851,0,0,1-9.181,3.744q-6.6,0-10.028-4.814a15.679,15.679,0,0,1-2.764-9.493,16.243,16.243,0,0,1,3.61-10.92A11.419,11.419,0,0,1,739.455,326.665Zm0,24.38a5.72,5.72,0,0,0,4.947-2.429q1.739-2.429,1.738-6.975,0-4.858-1.916-7.577a5.971,5.971,0,0,0-9.738.223,13.124,13.124,0,0,0-1.761,7.354Q732.725,351.046,739.455,351.045Z" transform="translate(-643.24 -326.665)" fill="#838384"/>
    <path id="Path_1313" data-name="Path 1313" d="M814.2,329.911l5.857,16.93,5.857-16.93a2.791,2.791,0,0,1,2.638-1.879h.039a2.791,2.791,0,0,1,2.622,3.748l-8.258,22.63a2.791,2.791,0,0,1-2.622,1.834h-.548a2.792,2.792,0,0,1-2.624-1.838l-8.222-22.63a2.792,2.792,0,0,1,2.624-3.745h0A2.791,2.791,0,0,1,814.2,329.911Z" transform="translate(-693.225 -327.497)" fill="#838384"/>
    <path id="Path_1314" data-name="Path 1314" d="M888.638,328.032h1.124a2.708,2.708,0,0,1,2.542,1.773l8.391,22.8a2.708,2.708,0,0,1-2.542,3.644h-.087a2.7,2.7,0,0,1-2.577-1.874q-.557-1.726-1.252-4.009H884.119q-.465,1.492-1.3,4.021a2.71,2.71,0,0,1-2.573,1.862h0a2.708,2.708,0,0,1-2.542-3.644l8.391-22.8A2.709,2.709,0,0,1,888.638,328.032Zm.607,7.622q-1.249,3.522-3.432,9.895h6.775Q890.492,339.4,889.245,335.654Z" transform="translate(-735.088 -327.497)" fill="#838384"/>
    <path id="Path_1315" data-name="Path 1315" d="M975.168,331.507l-.113.163a2.24,2.24,0,0,1-2.583.836,14.458,14.458,0,0,0-4.812-.939q-3.7,0-3.7,2.763a2.426,2.426,0,0,0,.847,1.961,13.891,13.891,0,0,0,3.521,1.738,19.628,19.628,0,0,1,6.931,4.056,7.285,7.285,0,0,1,2.117,5.259,7.775,7.775,0,0,1-3.254,6.685,11.1,11.1,0,0,1-6.641,1.917,16.963,16.963,0,0,1-7.775-2.109,2.24,2.24,0,0,1-.766-3.293h0a2.233,2.233,0,0,1,2.677-.77,13.1,13.1,0,0,0,5.106.913q4.59,0,4.591-3.7,0-2.406-4.947-4.1-7.979-2.674-7.978-8.558a6.814,6.814,0,0,1,2.674-5.66,10.291,10.291,0,0,1,6.641-2.006,14.8,14.8,0,0,1,6.624,1.549A2.244,2.244,0,0,1,975.168,331.507Z" transform="translate(-784.309 -326.665)" fill="#838384"/>
  </g>
  <g id="Group_201" data-name="Group 201" transform="translate(112.158 43.707) rotate(-8)">
    <text id="End-To-End_Solutions" data-name="End-To-End Solutions" transform="translate(0.818 13.866) rotate(7.923)" fill="#828283" font-size="14" font-family="Tajawal-Regular, Tajawal" letter-spacing="0.01em"><tspan x="0" y="0">End-To-End Solutions</tspan></text>
  </g>
</svg>
