<svg id="Component_35_1" data-name="Component 35 – 1" xmlns="http://www.w3.org/2000/svg" width="80" height="80" viewBox="0 0 80 80">
  <circle id="Ellipse_431" data-name="Ellipse 431" cx="40" cy="40" r="40" fill="#ff4d00"/>
  <path id="Path_1270" data-name="Path 1270" d="M1479.454,825.273a3.592,3.592,0,0,1,2.142,2.885c.574,2.516,1.117,5.038,1.657,7.561a6.049,6.049,0,0,1,.11,1.172,2.346,2.346,0,0,1-1.684,2.437c-.794.286-1.593.559-2.4.8a1.969,1.969,0,0,0-1.4,1.535,5.269,5.269,0,0,0,.124,3.016,32.429,32.429,0,0,0,9.807,14.292,21.216,21.216,0,0,0,3,2.081,3.636,3.636,0,0,0,2.248.4,1.772,1.772,0,0,0,1.349-.788c.443-.65.9-1.289,1.35-1.937a2.5,2.5,0,0,1,3.441-1.023c.8.342,1.557.787,2.323,1.2q2.164,1.181,4.316,2.387c.368.205.729.426,1.08.659a3.516,3.516,0,0,1,1.839,2.664l-.138.955c-.318.728-.58,1.486-.962,2.179a10.132,10.132,0,0,1-7.756,5.449c-.7.1-1.413.071-2.121.1l-1.644-.239c-.651-.2-1.312-.381-1.953-.613a26.293,26.293,0,0,1-8.465-5.376,70.975,70.975,0,0,1-15.745-21.674,24.982,24.982,0,0,1-2.12-7.954c-.061-.81-.043-1.626-.061-2.44q.119-.825.238-1.649c.046-.121.1-.24.136-.364a10.044,10.044,0,0,1,7.672-7.5,20.993,20.993,0,0,1,2.659-.36Z" transform="translate(-1448.311 -809.232)" fill="#fff"/>
</svg>
