<svg id="mortarboard" xmlns="http://www.w3.org/2000/svg" width="102.939" height="75.615" viewBox="0 0 102.939 75.615">
  <path id="Path_118" data-name="Path 118" d="M48.421-443.478c-7.544,1.972-29.19,9.033-29.914,9.757a1.651,1.651,0,0,0-.463.986c0,.583.8,1.509,1.328,1.509.181,0,3.279-.986,6.9-2.213,6.84-2.293,10.32-3.4,18.427-5.854,4.667-1.428,4.888-1.469,6.94-1.469,1.971-.02,2.334.06,5.633,1.046,14.685,4.446,25.408,8.067,35.949,12.11,6.277,2.434,6.659,2.676,6.84,4.446a2.934,2.934,0,0,1-1.267,2.716c-.986.644-10.863,4.406-18.689,7.1L77.087-412.3l-.724-.4c-1.448-.825-24.04-11.507-24.523-11.608a1.457,1.457,0,0,0-1.609,1.408,1.836,1.836,0,0,0,.262.966c.121.181,5.13,2.655,11.1,5.492,5.955,2.836,10.984,5.23,11.145,5.311.3.181-2.535,1.167-9.535,3.319C51.7-404.29,51.981-404.331,46.59-405.9,30.8-410.466,6.054-419.117,4.163-420.706a2.963,2.963,0,0,1-.282-4.064c.483-.583,3.118-1.73,8.63-3.742,2.7-.986,3.44-1.871,2.615-3.058-.664-.945-.825-.925-7.745,1.77-4.144,1.609-4.365,1.73-5.472,2.8A4.708,4.708,0,0,0,.461-424.79a6.021,6.021,0,0,0,2.112,6.739c.865.624,6.216,2.736,13.6,5.432l4.868,1.77.06,8.972.06,8.972.563.945a4.493,4.493,0,0,0,1.106,1.328c1.951,1.408,18.709,7.383,26.9,9.6,1.831.5,2.092.523,3.118.3,2.8-.624,12.915-3.883,18.488-5.955,1.589-.6,2.917-1.086,2.957-1.086a17.211,17.211,0,0,1,.08,2.293v2.293l-.905.443a6.364,6.364,0,0,0-2.937,3.36,27.782,27.782,0,0,0-.282,5.653c0,4.707,0,4.707.483,5.09.422.342.845.382,5.17.382,4.486,0,4.728-.02,5.13-.422s.4-.583.342-5.572l-.06-5.17-.543-.925a5.555,5.555,0,0,0-2.676-2.414l-.7-.261.04-3.018.06-3,1.408-.6c1.871-.785,2.414-1.187,3.058-2.313.483-.825.563-1.207.624-2.957.08-1.831.04-2.072-.362-2.575a1.407,1.407,0,0,0-2.173-.081c-.382.4-.443.7-.443,2.012a7.14,7.14,0,0,1-.221,2.012,2.971,2.971,0,0,1-1.79,1.147,74.59,74.59,0,0,1-.2-8.409v-8.429l.825-.241c.463-.141.946-.3,1.106-.362.241-.081.282.543.282,3.8,0,4.225.08,4.607,1.106,4.868a1.891,1.891,0,0,0,1.79-.784c.06-.181.121-2.293.121-4.687v-4.365l1.368-.463c2.414-.845,12.976-4.828,14.766-5.573,2.776-1.167,4.1-2.8,4.325-5.331a5.231,5.231,0,0,0-1.71-4.607C100.3-428.049,100-428.21,96.7-429.5c-10.682-4.164-22.451-8.208-34.621-11.889-3.138-.966-6.437-1.911-7.323-2.132A13.488,13.488,0,0,0,48.421-443.478ZM28.283-408.414c4.888,1.609,9.777,3.138,15.913,5.009l4.728,1.428h5.432l4.526-1.368c2.495-.744,6.84-2.092,9.656-2.977s5.291-1.67,5.492-1.71c.322-.1.342.4.342,8.449v8.55l-4.064,1.509c-4.567,1.67-10.521,3.661-15.309,5.07l-3.179.925-4.446-1.328c-6.82-2.052-14.6-4.788-20.3-7.122-1.971-.8-2.6-1.167-2.776-1.549-.241-.563-.342-16.174-.08-16.174C24.3-409.7,26.131-409.118,28.283-408.414Zm48.6,28.365c1.328.563,1.509,1.167,1.509,5.19v3.581H73.124l.08-3.6c.06-4.043.181-4.385,1.589-5.09A1.961,1.961,0,0,1,76.886-380.049Z" transform="translate(-0.175 443.876)" fill="#ff4d00"/>
</svg>
