<svg id="Component_32_1" data-name="Component 32 – 1" xmlns="http://www.w3.org/2000/svg" width="156" height="156" viewBox="0 0 156 156">
  <circle id="Ellipse_429" data-name="Ellipse 429" cx="78" cy="78" r="78" fill="#ff4d00" opacity="0.33"/>
  <circle id="Ellipse_430" data-name="Ellipse 430" cx="65" cy="65" r="65" transform="translate(13 13)" fill="#ff4d00"/>
  <g id="agreement" transform="translate(27 541)">
    <path id="Path_1267" data-name="Path 1267" d="M30.557-495.631l-.369.355v32.38H27.823v-.813c0-.68-.059-.887-.369-1.182l-.355-.369H16.724l-.355.369-.369.355v22.2l.369.355.355.369H27.1l.355-.369c.31-.3.369-.5.369-1.182v-.813h1.345l-.1.739a3.684,3.684,0,0,0,.1,1.448,3.955,3.955,0,0,0,3.148,2.542.233.233,0,0,1,.236.236,3.955,3.955,0,0,0,2.542,3.148,5.179,5.179,0,0,0,1.522.133l.828-.074.281.547a3.643,3.643,0,0,0,3.458,1.892c.724-.044.828-.015.828.236a3.875,3.875,0,0,0,2.557,3.177,4.713,4.713,0,0,0,2.911-.207,22.306,22.306,0,0,0,1.877-1.286l1.374-1.035.65.163a3.734,3.734,0,0,0,4.375-1.744l.281-.562.828.074a5.315,5.315,0,0,0,1.478-.118,3.992,3.992,0,0,0,2.143-1.759l.281-.562.828.074A3.561,3.561,0,0,0,64.4-437.8c.621-.547.695-.576,1.138-.429a3.6,3.6,0,0,0,3.739-.946,3.3,3.3,0,0,0,1.108-2.645,3.272,3.272,0,0,1,.369-1.419l.369-.739h3.99v1.4c0,1.3.03,1.448.369,1.773l.355.369H86.214l.355-.369.369-.355v-22.2l-.369-.355-.355-.369H75.84l-.355.369c-.31.3-.369.5-.369,1.182v.813H72.751v-33.563l-.369-.355L72.027-496H30.912Zm39.829,17.6v15.606l-.695-.606a9.148,9.148,0,0,0-3.222-1.818c-.99-.325-1.227-.34-5.173-.34s-4.182.015-5.173.34a12.33,12.33,0,0,0-3.976,2.32l-1.714,1.286-.887-.665a11.608,11.608,0,0,0-3.709-1.833A15.71,15.71,0,0,0,41.567-464H38.242l-1.182.5a5.912,5.912,0,0,1-2.838.576l-1.67.059v-30.77H70.386ZM25.458-453.437v9.458H18.365V-462.9h7.094Zm39.977-9.237A7.381,7.381,0,0,1,69.44-459.9l.458.547h5.217v13.005H72.588a15.071,15.071,0,0,0-2.808.148,2.485,2.485,0,0,0-.606.813l-.34.65-4.286-3.931c-9.1-8.35-9.059-8.321-9.458-8.321a16.374,16.374,0,0,0-2.734,1.182c-2.69,1.345-3.4,1.493-4.064.813a1.094,1.094,0,0,1-.1-1.522c.34-.4,6.754-5.173,7.493-5.6,1.168-.65,2-.768,5.542-.768A19.65,19.65,0,0,1,65.435-462.674Zm-20.483,1.182a9.83,9.83,0,0,1,3.118,1.434l.369.3-.517.384a6.777,6.777,0,0,0-2.187,2.483,3.267,3.267,0,0,0,.931,3.547,3.458,3.458,0,0,0,3.148,1.064,6.258,6.258,0,0,0,2.793-.99c1-.488,1.892-.9,1.966-.9.163,0,12.252,10.7,13.05,11.542a1.263,1.263,0,0,1-.916,2.2,1.358,1.358,0,0,1-1.153-.562c-.443-.443-6.089-5.5-10.729-9.591-.68-.606-1.286-.65-1.8-.118a1.087,1.087,0,0,0-.03,1.6c.177.207,2.35,2.187,4.833,4.389s4.714,4.227,4.951,4.463l.443.429-.355.3a1.486,1.486,0,0,1-.931.281c-.532,0-.709-.1-1.655-1-.576-.562-2.69-2.424-4.714-4.138-4.005-3.429-4.182-3.532-4.907-2.749a1.094,1.094,0,0,0-.03,1.581c.177.192,2,1.818,4.02,3.591s3.739,3.3,3.8,3.384a1.164,1.164,0,0,1-.251,1.33,1.471,1.471,0,0,1-2.1-.118,4.114,4.114,0,0,1-.621-.591c-.03-.074-1.64-1.448-3.576-3.074-3.857-3.207-4.064-3.31-4.788-2.572a1.087,1.087,0,0,0-.03,1.6c.177.192,1,.946,1.847,1.655s1.507,1.315,1.507,1.345a1.919,1.919,0,0,1-.443-.1,3.9,3.9,0,0,0-1.256-.1c-.709.044-.813.015-.813-.236a3.9,3.9,0,0,0-2.542-3.177,5.179,5.179,0,0,0-1.522-.133l-.828.074-.281-.562a3.877,3.877,0,0,0-2.867-1.906.233.233,0,0,1-.236-.236,4.033,4.033,0,0,0-2.453-3.133,4.451,4.451,0,0,0-2.823.118,11.372,11.372,0,0,0-1.8,1.168l-1.182.9H27.823v-14.173l4.256-.044,4.242-.044,1.02-.429c1.552-.635,1.611-.65,4.227-.665A17.207,17.207,0,0,1,44.952-461.491Zm39.622,9.237v9.458H77.48v-18.917h7.094Zm-47.662,6.281a1.11,1.11,0,0,1,.118,1.522,38.231,38.231,0,0,1-3.547,2.66,2.049,2.049,0,0,1-.857.177,1.177,1.177,0,0,1-.99-1.892,40.759,40.759,0,0,1,3.5-2.66A1.636,1.636,0,0,1,36.912-445.974Zm3.547,3.547c.65.635.5.99-.769,1.966a16.474,16.474,0,0,0-1.67,1.434,2.41,2.41,0,0,1-1.847.961,1.177,1.177,0,0,1-.99-1.892,40.771,40.771,0,0,1,3.5-2.66A1.636,1.636,0,0,1,40.459-442.427Zm4.729,2.365a1.11,1.11,0,0,1,.118,1.522,38.23,38.23,0,0,1-3.547,2.66,1.553,1.553,0,0,1-1.744-.192c-.65-.636-.5-.99.783-1.966a17.182,17.182,0,0,0,1.581-1.36C43.385-440.491,44.508-440.757,45.188-440.062Zm8.1,3.458a1.366,1.366,0,0,1,.547.931,1.33,1.33,0,0,1-1,1.153c-.236,0-.266-.118-.266-1.079a3.132,3.132,0,0,0-.251-1.567l-.251-.5.325.281C52.578-437.239,52.977-436.885,53.287-436.6Zm-3.37.089a1.11,1.11,0,0,1,.118,1.522,38.24,38.24,0,0,1-3.547,2.66,2.049,2.049,0,0,1-.857.177,1.177,1.177,0,0,1-.99-1.892,40.784,40.784,0,0,1,3.5-2.66A1.636,1.636,0,0,1,49.917-436.515Z" fill="#fffdfc"/>
    <path id="Path_1268" data-name="Path 1268" d="M185.768-463.472a11.958,11.958,0,0,0-8.838,7.508,11.7,11.7,0,0,0,2.719,12.444,11.79,11.79,0,0,0,18.237-1.936,10.68,10.68,0,0,0,1.847-6.4,10.667,10.667,0,0,0-1.833-6.384,11.993,11.993,0,0,0-7.109-5.1A15.087,15.087,0,0,0,185.768-463.472Zm4.212,2.379a9.483,9.483,0,0,1,4.67,2.6,9.309,9.309,0,0,1-.015,13.286,9.309,9.309,0,0,1-13.286.015,9.293,9.293,0,0,1-.015-13.316A9.338,9.338,0,0,1,189.98-461.092Z" transform="translate(-136.516 -27.592)" fill="#fffdfc"/>
    <path id="Path_1269" data-name="Path 1269" d="M219.639-409.867l-3.118,3.118L214.57-408.2a15.423,15.423,0,0,0-2.01-1.374c-.03.044-.355.458-.709.946l-.65.857,2.527,1.892c1.936,1.448,2.616,1.892,2.971,1.892.384,0,.931-.488,4.108-3.65,2.01-2.01,3.665-3.724,3.665-3.813A5.96,5.96,0,0,0,222.92-413C222.831-413,221.368-411.6,219.639-409.867Z" transform="translate(-166.352 -70.734)" fill="#fffdfc"/>
  </g>
</svg>
