<svg id="Component_31_1" data-name="Component 31 – 1" xmlns="http://www.w3.org/2000/svg" width="156" height="156" viewBox="0 0 156 156">
  <circle id="Ellipse_427" data-name="Ellipse 427" cx="78" cy="78" r="78" fill="#ff4d00" opacity="0.33"/>
  <circle id="Ellipse_428" data-name="Ellipse 428" cx="65" cy="65" r="65" transform="translate(13 13)" fill="#ff4d00"/>
  <g id="people" transform="translate(36 485.8)">
    <path id="Path_1256" data-name="Path 1256" d="M188.018-437.652a12.594,12.594,0,0,0-10.287,8.844,14.82,14.82,0,0,0,0,6.891,12.463,12.463,0,0,0,12.043,8.876,10.957,10.957,0,0,0,5.464-1.247,11.879,11.879,0,0,0,5.743-5.693,10.679,10.679,0,0,0,1.2-5.923,9.849,9.849,0,0,0-.525-3.314,12.281,12.281,0,0,0-3.035-4.857,12.268,12.268,0,0,0-7.285-3.577A9.371,9.371,0,0,0,188.018-437.652Zm4.84,3.1a9.939,9.939,0,0,1,6.251,6.268,10.622,10.622,0,0,1,.082,5.546,9.821,9.821,0,0,1-7.121,6.743,9.636,9.636,0,0,1-8.991-2.379,9.242,9.242,0,0,1-2.642-4.069,10.236,10.236,0,0,1-.066-5.71,10.34,10.34,0,0,1,7.318-6.711A13.01,13.01,0,0,1,192.859-434.551Z" transform="translate(-148.231 0)" fill="#fffdfc"/>
    <path id="Path_1257" data-name="Path 1257" d="M359.268-385.569a10.153,10.153,0,0,0-7.236,6.645,11.867,11.867,0,0,0-.164,5.086,10.168,10.168,0,0,0,2.527,4.348,8.719,8.719,0,0,0,3.9,2.477,9.525,9.525,0,0,0,7.465-.574,9.587,9.587,0,0,0,1.1-16.489A10.1,10.1,0,0,0,359.268-385.569Zm4.118,2.806a6.518,6.518,0,0,1,3.085,1.952,6.806,6.806,0,0,1-2.231,10.944,7.1,7.1,0,0,1-8.45-2.084,6.076,6.076,0,0,1-1.362-4.266,4.775,4.775,0,0,1,.525-2.756,7.357,7.357,0,0,1,4.4-3.823A9.069,9.069,0,0,1,363.386-382.763Z" transform="translate(-293.967 -43.486)" fill="#fffdfc"/>
    <path id="Path_1258" data-name="Path 1258" d="M49.809-381.511a9.892,9.892,0,0,0-6.071,4.085,9.5,9.5,0,0,0,1.247,12.158,10.489,10.489,0,0,0,6.858,2.855A10.065,10.065,0,0,0,61.13-369.3a10.24,10.24,0,0,0-.066-5.71,9.312,9.312,0,0,0-2.609-4.053A9.566,9.566,0,0,0,49.809-381.511Zm4.906,3.134A6.752,6.752,0,0,1,58.521-374a6.891,6.891,0,0,1-3.757,8.187,7.236,7.236,0,0,1-6.842-.541,7.659,7.659,0,0,1-2.477-2.838,6.947,6.947,0,0,1,4.118-9.467,5.919,5.919,0,0,1,2.527-.279A4.952,4.952,0,0,1,54.715-378.377Z" transform="translate(-35.19 -46.871)" fill="#fffdfc"/>
    <path id="Path_1259" data-name="Path 1259" d="M40.034-276.813a23.318,23.318,0,0,0-13.339,5.792l-1.116,1.034-1.592-.755a15.821,15.821,0,0,0-5.2-1.591A16.751,16.751,0,0,0,.87-261.259C.2-259.29,0-257.633,0-254.122c0,3.232,0,3.249.459,4.118a3.121,3.121,0,0,0,1.263,1.378l.788.492,8.318.049,8.335.049.1.656a4.2,4.2,0,0,0,1.411,2.51c1.395,1.263-.361,1.165,21.329,1.165s19.935.1,21.329-1.165a4.109,4.109,0,0,0,1.444-3.052l.082-1.1,8.22-.049c5.841-.033,8.351-.115,8.647-.246a4.578,4.578,0,0,0,1.969-1.936c.263-.558.312-1.116.312-3.872a19.833,19.833,0,0,0-.87-7.121,16.589,16.589,0,0,0-10.7-10.468,17.147,17.147,0,0,0-13.766,1.641l-.8.509-1.017-.87A23.069,23.069,0,0,0,40.034-276.813Zm5.349,2.92a20.061,20.061,0,0,1,16.325,15.7,28.384,28.384,0,0,1,.41,5.759c.082,4.414,0,5.135-.706,5.677-.427.345-.509.345-19.41.345-18.786,0-19,0-19.41-.328-.706-.558-.771-1.083-.706-5.578a27.514,27.514,0,0,1,.41-5.874,20.12,20.12,0,0,1,16.178-15.685A25.622,25.622,0,0,1,45.382-273.893Zm25.48,3.544a13.988,13.988,0,0,1,10.025,10.058,17.016,17.016,0,0,1,.328,4.692c0,2.412-.049,3.429-.2,3.577s-2.182.2-8.187.2H64.858l-.1-2.838a20.776,20.776,0,0,0-2.51-9.976,24.629,24.629,0,0,0-1.641-2.707l-.87-1.2.541-.345A14.5,14.5,0,0,1,70.863-270.349ZM20.05-269.315c1.395.345,3.577,1.28,3.577,1.51a12.291,12.291,0,0,1-.673,1.083A27.1,27.1,0,0,0,20.1-260.6a24.26,24.26,0,0,0-.9,7.17v2.592H11.173c-6.842,0-8.04-.033-8.22-.246-.148-.181-.18-1.2-.131-3.971.066-3.347.115-3.872.443-4.889A14.068,14.068,0,0,1,13.7-269.463,16.273,16.273,0,0,1,20.05-269.315Z" transform="translate(0 -134.489)" fill="#fffdfc"/>
  </g>
</svg>
