<svg id="precision_1_" data-name="precision (1)" xmlns="http://www.w3.org/2000/svg" width="93.275" height="93.243" viewBox="0 0 93.275 93.243">
  <path id="Path_146" data-name="Path 146" d="M45.115-511.527l-.473.492v7.41H43.9a42.441,42.441,0,0,0-6.263.947A38.49,38.49,0,0,0,10.27-477.956a40.03,40.03,0,0,0-2.039,9.995v.746H.822l-.492.473a2.049,2.049,0,0,0,0,2.694l.492.473h7.41v.746a42.438,42.438,0,0,0,.947,6.263A38.49,38.49,0,0,0,33.9-429.2a40.03,40.03,0,0,0,9.995,2.039h.746v7.41l.473.492a2.049,2.049,0,0,0,2.694,0l.473-.492v-7.41h.746a42.437,42.437,0,0,0,6.263-.947,38.49,38.49,0,0,0,27.363-24.723,40.03,40.03,0,0,0,2.039-9.995v-.746H92.1l.492-.473a2.049,2.049,0,0,0,0-2.694l-.492-.473h-7.41v-.746a40.03,40.03,0,0,0-2.039-9.995,38.49,38.49,0,0,0-27.363-24.723,42.441,42.441,0,0,0-6.263-.947h-.746v-7.41l-.473-.492A1.544,1.544,0,0,0,46.463-512,1.544,1.544,0,0,0,45.115-511.527Zm-.473,17.969v6.226L42.822-487a21.807,21.807,0,0,0-17.969,17.969l-.328,1.821H12l.127-1.42a35.155,35.155,0,0,1,12.944-23.758,37.758,37.758,0,0,1,10.923-5.826,36.885,36.885,0,0,1,7.883-1.566l.765-.018Zm6.809-5.953a34.947,34.947,0,0,1,22.01,12.726A35.679,35.679,0,0,1,80.8-468.635l.127,1.42H68.4l-.328-1.821A21.807,21.807,0,0,0,50.1-487l-1.821-.328V-499.8h.655A23.476,23.476,0,0,1,51.451-499.511Zm-6.809,18.26c0,2.075.018,2.166.473,2.64a1.544,1.544,0,0,0,1.347.473,1.544,1.544,0,0,0,1.347-.473c.455-.473.473-.546.473-2.658v-2.185l.783.127a19.212,19.212,0,0,1,8.684,3.86A18.787,18.787,0,0,1,64.395-468l.127.783H62.338c-2.112,0-2.185.018-2.658.473a1.544,1.544,0,0,0-.473,1.347,1.544,1.544,0,0,0,.473,1.347c.473.455.546.473,2.658.473h2.185l-.127.765a18.781,18.781,0,0,1-6.645,11.488,19.211,19.211,0,0,1-8.684,3.86l-.783.127v-2.185c0-2.112-.018-2.185-.473-2.658a2.049,2.049,0,0,0-2.694,0c-.455.473-.473.546-.473,2.658v2.185l-.765-.127a19.191,19.191,0,0,1-8.7-3.86,18.781,18.781,0,0,1-6.645-11.488l-.127-.765h2.185c2.112,0,2.185-.018,2.658-.473a2.049,2.049,0,0,0,0-2.694c-.473-.455-.546-.473-2.658-.473H28.4L28.53-468a18.556,18.556,0,0,1,14.291-15.129C44.806-483.563,44.642-483.727,44.642-481.251Zm-19.789,19.5A21.343,21.343,0,0,0,30.97-449.9a21.459,21.459,0,0,0,11.852,6.117l1.821.328v12.525l-1.4-.127a35.09,35.09,0,0,1-18.569-7.683,34.9,34.9,0,0,1-12.544-23.43l-.127-1.4H24.525Zm55.945-.419A35.294,35.294,0,0,1,73.443-444,34.978,34.978,0,0,1,49.7-431.059l-1.42.127v-12.525l1.821-.328A21.344,21.344,0,0,0,61.955-449.9a21.459,21.459,0,0,0,6.117-11.852l.328-1.821H80.925Z" transform="translate(0.175 512)" fill="#ff4d00"/>
  <path id="Path_147" data-name="Path 147" d="M306.473-415.527a1.544,1.544,0,0,0-.473,1.347,1.544,1.544,0,0,0,.473,1.347,1.544,1.544,0,0,0,1.347.473,1.544,1.544,0,0,0,1.347-.473,1.544,1.544,0,0,0,.473-1.347,1.544,1.544,0,0,0-.473-1.347,1.544,1.544,0,0,0-1.347-.473A1.544,1.544,0,0,0,306.473-415.527Z" transform="translate(-250.26 433.477)" fill="#ff4d00"/>
  <path id="Path_148" data-name="Path 148" d="M341.092-395.583A1.732,1.732,0,0,0,340-393.817c0,.892.091,1,2.476,3a28.7,28.7,0,0,1,6.9,9.085c.892,1.93,1.293,2.33,2.33,2.33a1.576,1.576,0,0,0,1.675-.91c.437-.837.346-1.274-.746-3.477a31.271,31.271,0,0,0-7.246-9.667C342.876-395.638,342.166-396,341.092-395.583Z" transform="translate(-278.07 416.902)" fill="#ff4d00"/>
  <path id="Path_149" data-name="Path 149" d="M213.756-305.527l-.473.492v6.317h-6.317l-.492.473A1.544,1.544,0,0,0,206-296.9a1.544,1.544,0,0,0,.473,1.347l.492.473h6.317v6.317l.473.492a2.049,2.049,0,0,0,2.694,0l.473-.492v-6.317h6.317l.492-.473a1.544,1.544,0,0,0,.473-1.347,1.544,1.544,0,0,0-.473-1.347l-.492-.473h-6.317v-6.317l-.473-.492A1.544,1.544,0,0,0,215.1-306,1.544,1.544,0,0,0,213.756-305.527Z" transform="translate(-168.466 343.503)" fill="#ff4d00"/>
</svg>
