<svg id="Component_28_1" data-name="Component 28 – 1" xmlns="http://www.w3.org/2000/svg" width="156" height="156" viewBox="0 0 156 156">
  <circle id="Ellipse_417" data-name="Ellipse 417" cx="78" cy="78" r="78" fill="#ff4d00" opacity="0.33"/>
  <circle id="Ellipse_422" data-name="Ellipse 422" cx="65" cy="65" r="65" transform="translate(13 13)" fill="#ff4d00"/>
  <g id="chess-_1_" transform="translate(18.765 553.745)">
    <path id="Path_1265" data-name="Path 1265" d="M40.133-511.542c-.885.464-.984.857-.984,4.132v2.9l-.6.436a20.386,20.386,0,0,0-3.5,3.6,21.936,21.936,0,0,0-1.7,2.9,16.463,16.463,0,0,1-3.626,5.285,13.577,13.577,0,0,0-1.925,2.347,5.375,5.375,0,0,0,.056,4.877,5.5,5.5,0,0,0,8.545,1.6l.562-.478h2a13.7,13.7,0,0,0,5.172-.787,3.406,3.406,0,0,1,.9-.281,15.4,15.4,0,0,1-1.293,3.949,25.478,25.478,0,0,1-3.809,5.411c-.97,1.195-2.178,2.783-2.67,3.514a22.185,22.185,0,0,0-3.668,10.92l-.1,1.138-.885.576A5.168,5.168,0,0,0,30.519-457a11.825,11.825,0,0,0-.253,4.4,5.292,5.292,0,0,0,2.909,3.865l.843.408,6.493.042c7.2.042,7.084.056,7.632-.857a1.809,1.809,0,0,0,0-1.9c-.52-.857-.632-.871-7.154-.871-3.486,0-6.044-.056-6.254-.141-.661-.239-.928-.914-.928-2.249s.267-2.01.928-2.249c.211-.084,3.7-.141,8.925-.141,9.318,0,9.037.028,9.67-.787a1.922,1.922,0,0,0,0-2.08c-.632-.8-.436-.787-8.644-.787H37.153l.1-.942a25.01,25.01,0,0,1,1.012-4.863c.843-2.389,1.925-4.09,4.821-7.618.829-1.012,1.855-2.319,2.291-2.923a19.724,19.724,0,0,0,3.261-7.758,22.64,22.64,0,0,0,.3-4.736,1.84,1.84,0,0,0-2.193-1.377,5.142,5.142,0,0,0-1.265.829,10.488,10.488,0,0,1-1.658,1.124c-1.588.8-2.024.885-4.947.984-3.078.112-3.443.211-4.694,1.251-.8.661-1.42.829-2.08.548a1.669,1.669,0,0,1-1.167-1.7v-.745l1.391-1.462a19.529,19.529,0,0,0,4.02-5.692,14.649,14.649,0,0,1,5.088-6.254c1.321-.9,1.377-1.054,1.377-3.823,0-2.6-.056-2.474.984-2.15a7.168,7.168,0,0,1,4.694,3.823c.45.829.773,1.04,2.122,1.391a8.966,8.966,0,0,1,5.1,3.275c.365.506.829,1.1,1.026,1.307a1.581,1.581,0,0,0,1.9.323c1.673-.829,1.377-2.46-.843-4.793a13.092,13.092,0,0,0-5.706-3.5,1.351,1.351,0,0,1-.956-.759,11.484,11.484,0,0,0-3.176-3.148,13.726,13.726,0,0,0-6.2-1.982A2.574,2.574,0,0,0,40.133-511.542Z" transform="translate(0 0)" fill="#fff"/>
    <path id="Path_1266" data-name="Path 1266" d="M216.2-451.5a10.848,10.848,0,0,0-2.038.759,9.164,9.164,0,0,0-4.807,5.566,7.031,7.031,0,0,0-.365,2.741,7.031,7.031,0,0,0,.365,2.741,12,12,0,0,0,.871,1.954c.267.45.492.829.492.857a9.428,9.428,0,0,1-1.054.112,5.5,5.5,0,0,0-4.483,2.98,3.768,3.768,0,0,0-.436,2.389,4,4,0,0,0,.394,2.361,6.012,6.012,0,0,0,2.586,2.572,4.606,4.606,0,0,0,2.417.45l1.6.056-.1,1.293a19.291,19.291,0,0,1-3.542,10.485c-.6.885-1.335,1.982-1.644,2.446a29.888,29.888,0,0,0-2.614,5.552,27.971,27.971,0,0,0-1.068,5.032l-.1.857-.632.155a5.425,5.425,0,0,0-3.528,2.825c-.351.717-.379.928-.422,2.9a6.38,6.38,0,0,0,.239,2.853,5.166,5.166,0,0,0,3.219,3.092c.871.3.928.3,16.936.267l16.05-.042.773-.365a5.14,5.14,0,0,0,2.881-3.429,11.361,11.361,0,0,0,0-4.357,5.208,5.208,0,0,0-4.02-3.781l-.506-.084-.084-1.054a25.16,25.16,0,0,0-3.949-10.864c-.436-.632-1.138-1.672-1.574-2.319a18.9,18.9,0,0,1-3.275-9.571c-.084-.843-.155-1.616-.155-1.715s.464-.183,1.588-.211a4.6,4.6,0,0,0,2.516-.52,5.4,5.4,0,0,0,2.516-7.154,5.551,5.551,0,0,0-4.582-3.12l-1.04-.084.478-.773a10.9,10.9,0,0,0,.871-1.9,7.1,7.1,0,0,0,.394-2.881,6.786,6.786,0,0,0-.394-2.909,9.175,9.175,0,0,0-8.461-6.311A9.426,9.426,0,0,0,216.2-451.5Zm3.935,3.781a5.868,5.868,0,0,1,3.654,5.271,5.609,5.609,0,0,1-9.543,3.963,5.9,5.9,0,0,1-1.588-3.078,5.747,5.747,0,0,1,4.2-6.353A8.133,8.133,0,0,1,220.139-447.715Zm7.463,15.067a1.771,1.771,0,0,1-.3,2.769c-.351.211-1.209.239-9.206.239h-8.812l-.464-.464a1.734,1.734,0,0,1,.239-2.769c.45-.281.632-.281,9.276-.253l8.826.042Zm-6.549,7.6c.576,6.254,1.462,8.826,4.624,13.521,2.291,3.4,3.008,4.877,3.739,7.674a20.425,20.425,0,0,1,.492,2.558l.112,1.026H218.186c-11.342,0-11.82-.014-11.82-.253a21.916,21.916,0,0,1,.984-4.54,23.439,23.439,0,0,1,3.457-6.592,40.663,40.663,0,0,0,2.249-3.724,24.783,24.783,0,0,0,2.207-8.756l.155-1.855h5.538Zm13.24,28.9c.379.379.394.436.394,1.94v1.56l-.464.408-.45.408H218.3c-16.641,0-16.036.028-16.43-.689a10.534,10.534,0,0,1,0-3.387c.379-.717-.253-.7,16.472-.661l15.573.028Z" transform="translate(-146.838 -51.642)" fill="#fff"/>
  </g>
</svg>
