<svg id="Component_48_1" data-name="Component 48 – 1" xmlns="http://www.w3.org/2000/svg" width="43.856" height="43.856" viewBox="0 0 43.856 43.856">
  <path id="Path_693" data-name="Path 693" d="M94.882,272.053H74.146a11.719,11.719,0,0,0-11.56,11.806V304.1a11.719,11.719,0,0,0,11.56,11.806H94.882a11.719,11.719,0,0,0,11.56-11.806V283.859A11.72,11.72,0,0,0,94.882,272.053Z" transform="translate(-62.586 -272.053)" fill="#2aa4ef"/>
  <path id="Twitter" d="M108.621,299.314a9.682,9.682,0,0,1-3.122,1.221,4.844,4.844,0,0,0-3.585-1.59A4.976,4.976,0,0,0,97,303.982a5.136,5.136,0,0,0,.127,1.147A13.829,13.829,0,0,1,87,299.865a5.127,5.127,0,0,0-.665,2.535,5.07,5.07,0,0,0,2.185,4.192,4.821,4.821,0,0,1-2.226-.628v.062a5.008,5.008,0,0,0,3.942,4.939,4.691,4.691,0,0,1-1.294.177,4.76,4.76,0,0,1-.925-.09,4.932,4.932,0,0,0,4.589,3.5,9.736,9.736,0,0,1-7.272,2.088,13.678,13.678,0,0,0,7.53,2.261c9.037,0,13.977-7.674,13.977-14.331,0-.219,0-.438-.013-.653a10.085,10.085,0,0,0,2.449-2.607,9.6,9.6,0,0,1-2.82.792A5.027,5.027,0,0,0,108.621,299.314Z" transform="translate(-74.373 -285.985)" fill="#fff"/>
</svg>
